<?xml version="1.0" standalone="no"?>
<!DOCTYPE svg PUBLIC "-//W3C//DTD SVG 20010904//EN"
 "http://www.w3.org/TR/2001/REC-SVG-20010904/DTD/svg10.dtd">
<svg version="1.0" xmlns="http://www.w3.org/2000/svg"
 width="1024.000000pt" height="1024.000000pt" viewBox="0 0 1024.000000 1024.000000"
 preserveAspectRatio="xMidYMid meet">
<metadata>
Created by potrace 1.11, written by Peter Selinger 2001-2013
</metadata>
<g transform="translate(0.000000,1024.000000) scale(0.100000,-0.100000)"
fill="#000000" stroke="none">
<path d="M2550 7675 l-1335 -1335 448 -447 447 -448 1335 1335 1335 1335 -448
448 -447 447 -1335 -1335z"/>
<path d="M3665 6560 l-1059 -1059 32 -46 c17 -24 67 -96 111 -158 193 -273
266 -500 264 -827 -1 -188 -16 -305 -69 -517 l-36 -142 64 -59 c492 -455 1026
-762 1713 -985 308 -100 617 -179 1155 -296 402 -88 678 -154 859 -206 607
-173 1007 -374 1363 -685 198 -172 268 -218 402 -259 112 -35 270 -23 331 24
19 14 19 16 -20 51 -22 20 -157 152 -300 293 -378 372 -778 764 -1040 1021
-127 124 -349 342 -495 485 -952 936 -1223 1200 -1229 1200 -3 0 -40 -17 -81
-37 -88 -42 -155 -58 -248 -58 -240 0 -455 169 -517 406 -76 292 114 596 412
659 86 18 130 18 218 0 189 -40 348 -183 406 -364 16 -50 22 -91 21 -166 0
-107 -17 -173 -67 -263 -30 -53 -30 -57 -6 -79 10 -10 130 -128 267 -263 137
-134 364 -357 504 -495 140 -137 372 -365 515 -505 143 -140 483 -473 755
-740 272 -266 614 -602 760 -747 146 -145 268 -263 272 -263 3 0 14 29 23 64
30 110 5 227 -77 362 -18 30 -90 117 -161 192 -189 202 -327 402 -455 658
-187 375 -293 714 -462 1482 -143 647 -181 803 -260 1077 -195 678 -465 1223
-836 1686 -95 118 -211 252 -225 257 -4 2 -60 -8 -123 -23 -270 -60 -557 -76
-761 -41 -256 43 -428 120 -695 311 -63 45 -126 90 -140 98 l-26 16 -1059
-1059z"/>
<path d="M5375 5055 c-5 -2 -27 -6 -48 -10 -47 -8 -113 -65 -138 -120 -51
-112 12 -254 130 -294 100 -33 213 15 262 112 32 61 24 161 -16 219 -39 55
-147 108 -190 93z"/>
</g>
</svg>
